<?xml version="1.0" standalone="no"?>
<!DOCTYPE svg PUBLIC "-//W3C//DTD SVG 20010904//EN"
 "http://www.w3.org/TR/2001/REC-SVG-20010904/DTD/svg10.dtd">
<svg version="1.0" xmlns="http://www.w3.org/2000/svg"
 width="768.000000pt" height="898.000000pt" viewBox="0 0 768.000000 898.000000"
 preserveAspectRatio="xMidYMid meet">

<g transform="translate(0.000000,898.000000) scale(0.100000,-0.100000)"
fill="#000000" stroke="none">
<path d="M4825 8940 c-448 -107 -876 -265 -1325 -490 -275 -137 -438 -231
-670 -385 -675 -447 -1111 -935 -1197 -1339 -21 -97 -12 -346 16 -469 83 -363
327 -620 701 -741 175 -57 206 -61 440 -61 183 0 232 4 330 23 786 155 1595
689 2012 1327 44 66 104 170 134 232 64 131 132 329 118 342 -5 5 -62 11 -126
13 l-118 3 -41 -120 c-191 -559 -584 -1002 -1114 -1256 -414 -199 -876 -254
-1187 -143 -134 48 -198 99 -240 189 -19 42 -23 66 -22 150 1 86 5 112 32 183
70 188 219 383 470 616 356 329 944 562 1602 633 228 24 584 8 724 -34 16 -5
18 -1 13 23 -3 16 -20 90 -36 164 -16 74 -75 347 -131 605 -55 259 -103 480
-107 492 -4 20 -10 22 -43 17 -37 -6 -39 -5 -47 27 -5 18 -13 34 -18 35 -6 1
-82 -15 -170 -36z"/>
<path d="M5521 7292 c-1 -7 -27 -83 -60 -170 -59 -160 -137 -326 -197 -419
-18 -28 -30 -54 -27 -57 3 -3 -2 -8 -11 -12 -9 -3 -14 -10 -11 -14 3 -4 -2
-11 -11 -14 -8 -3 -12 -10 -9 -16 3 -6 -1 -13 -9 -16 -9 -3 -16 -13 -16 -20 0
-8 -7 -17 -15 -20 -8 -4 -13 -10 -10 -14 3 -5 -6 -17 -20 -28 -13 -11 -22 -22
-19 -25 3 -2 -6 -14 -20 -25 -14 -10 -23 -22 -20 -25 3 -2 -6 -13 -19 -23 -13
-11 -24 -23 -24 -27 -1 -5 -11 -21 -24 -35 -13 -15 -23 -30 -22 -33 1 -3 -12
-19 -30 -35 -27 -25 -29 -25 -12 -4 l20 25 -22 -19 -23 -19 0 -914 c0 -870 1
-915 17 -908 10 4 23 8 30 8 7 0 10 4 7 9 -5 7 13 12 44 11 6 -1 12 3 12 8 0
9 56 41 66 37 3 -2 10 5 15 15 6 9 14 15 19 12 4 -3 11 2 14 11 3 8 10 13 15
10 5 -3 12 1 15 10 3 8 10 12 16 9 6 -3 13 1 16 9 3 9 12 16 20 16 7 0 17 6
21 13 4 7 19 20 33 28 57 37 239 211 317 304 178 212 333 481 418 727 l37 107
-163 483 c-258 763 -358 1054 -358 1040z"/>
<path d="M935 3309 c-313 -33 -555 -138 -709 -310 -246 -274 -298 -818 -114
-1199 45 -93 61 -115 147 -200 86 -87 108 -102 211 -153 63 -31 151 -66 194
-78 191 -51 195 -52 964 -56 l722 -4 0 165 0 166 -607 0 c-628 0 -767 6 -913
41 -171 40 -323 138 -400 259 -124 194 -124 556 0 750 77 120 225 216 400 259
131 32 327 41 948 41 l572 0 0 165 0 165 -667 -1 c-368 -1 -704 -5 -748 -10z"/>
<path d="M3779 3305 c-58 -19 -132 -83 -182 -160 -21 -33 -239 -459 -483 -947
l-444 -888 173 0 173 0 64 143 c35 78 90 195 122 260 l58 117 579 0 579 0 47
-92 c26 -51 88 -168 137 -260 l90 -168 159 0 c87 0 159 3 159 6 0 3 -205 413
-454 912 -493 984 -505 1003 -606 1054 -70 35 -114 41 -171 23z m105 -426 c22
-26 366 -697 366 -714 0 -3 -185 -5 -411 -5 -226 0 -409 3 -407 8 42 94 357
699 374 717 30 33 47 32 78 -6z"/>
<path d="M5778 3310 c-147 -18 -249 -63 -327 -145 -113 -119 -121 -162 -121
-637 l0 -378 1005 -2 1006 -3 3 -85 c3 -47 1 -128 -4 -181 -10 -116 -33 -167
-92 -206 l-42 -28 -938 -3 -938 -2 0 -165 0 -165 929 0 c788 0 942 2 1017 15
163 28 283 105 347 223 51 93 57 151 57 560 l0 372 -1011 0 -1012 0 6 168 c7
216 25 269 110 315 l42 22 933 3 932 3 0 164 0 165 -917 -1 c-505 -1 -948 -5
-985 -9z"/>
<path d="M1076 1000 c-62 -19 -106 -83 -106 -155 0 -114 78 -178 197 -160 38
5 44 9 41 28 -3 19 -8 22 -46 19 -83 -7 -132 35 -132 113 0 78 49 120 132 113
37 -3 43 0 46 18 2 15 -4 23 -20 28 -31 8 -77 6 -112 -4z"/>
<path d="M1417 1002 l-28 -7 -2 -153 -2 -152 28 0 c27 0 27 1 27 65 0 61 1 65
23 65 36 0 51 -16 67 -72 14 -48 19 -53 47 -56 l32 -3 -19 61 c-10 34 -24 68
-31 76 -10 12 -8 18 8 29 41 29 37 105 -6 132 -24 15 -107 24 -144 15z m107
-58 c35 -34 5 -84 -51 -84 l-33 0 0 50 0 50 34 0 c19 0 42 -7 50 -16z"/>
<path d="M1744 1000 c-36 -11 -82 -54 -95 -88 -18 -46 -11 -127 14 -163 31
-47 70 -64 144 -64 69 0 78 5 69 33 -6 16 -13 19 -50 15 -48 -6 -99 15 -116
46 -5 11 -10 41 -10 66 0 25 5 55 10 66 17 31 68 52 116 46 37 -4 44 -1 50 15
3 11 3 22 0 25 -10 11 -101 12 -132 3z"/>
<path d="M2655 996 c-30 -13 -55 -51 -55 -84 0 -31 28 -59 85 -86 43 -20 55
-31 55 -49 0 -13 -5 -28 -12 -35 -15 -15 -72 -16 -98 -2 -15 8 -20 6 -25 -10
-9 -29 0 -38 49 -45 84 -13 146 26 146 90 0 44 -21 69 -85 99 -38 18 -55 32
-55 45 0 31 26 44 74 39 38 -5 45 -2 49 14 10 35 -69 50 -128 24z"/>
<path d="M3603 1003 l-33 -4 0 -154 0 -153 40 -7 c51 -9 142 11 176 37 79 63
69 215 -17 259 -37 19 -114 29 -166 22z m126 -58 c36 -18 55 -64 48 -117 -8
-56 -42 -89 -101 -95 l-46 -6 0 117 0 116 35 0 c20 0 49 -7 64 -15z"/>
<path d="M4035 996 c-30 -13 -55 -51 -55 -84 0 -31 31 -63 86 -87 44 -19 54
-28 54 -48 0 -14 -7 -30 -15 -37 -13 -11 -64 -11 -105 1 -10 3 -15 -4 -15 -21
0 -20 7 -26 38 -33 81 -19 157 21 157 83 0 48 -16 68 -80 100 -41 21 -60 36
-60 49 0 31 26 44 74 38 38 -6 45 -4 49 14 10 36 -68 51 -128 25z"/>
<path d="M4550 1003 c-37 -14 -60 -47 -60 -84 0 -44 17 -65 76 -90 51 -23 68
-42 59 -68 -8 -27 -49 -37 -96 -24 -34 9 -38 8 -43 -10 -7 -29 -1 -35 48 -42
84 -13 150 27 150 90 0 41 -25 72 -79 95 -22 9 -46 24 -53 32 -28 35 18 67 78
55 23 -5 30 -2 35 14 4 11 4 23 1 26 -8 9 -99 13 -116 6z"/>
<path d="M5663 995 c-84 -36 -67 -132 32 -169 49 -19 68 -53 44 -82 -12 -15
-63 -16 -109 -3 -10 3 -15 -3 -15 -20 0 -30 40 -44 101 -36 47 7 81 34 90 72
12 47 -7 76 -74 111 -41 22 -62 39 -62 51 0 31 26 44 74 38 38 -6 45 -4 49 14
10 37 -68 51 -130 24z"/>
<path d="M6003 995 c-52 -22 -69 -78 -37 -123 9 -13 40 -34 70 -47 44 -19 54
-28 54 -48 0 -14 -7 -30 -15 -37 -13 -11 -64 -11 -105 1 -10 3 -15 -4 -15 -21
0 -20 7 -26 38 -33 80 -19 157 22 157 83 0 48 -16 68 -80 100 -41 21 -60 36
-60 49 0 31 26 44 74 38 38 -6 45 -4 49 14 10 37 -68 51 -130 24z"/>
<path d="M6272 993 c-51 -25 -76 -68 -80 -138 -5 -99 42 -163 129 -172 107
-11 184 90 158 207 -22 97 -120 146 -207 103z m103 -39 c59 -23 59 -195 0
-218 -35 -13 -72 -6 -96 20 -20 22 -24 36 -24 89 0 53 4 67 24 89 24 26 61 33
96 20z"/>
<path d="M6625 998 c-65 -23 -105 -83 -105 -159 0 -107 82 -171 197 -154 38 5
44 9 41 28 -3 20 -8 22 -56 19 -48 -4 -55 -1 -87 31 -30 30 -35 42 -35 82 0
40 5 52 35 82 32 32 39 34 87 32 47 -3 53 -1 56 18 2 14 -4 22 -20 27 -33 8
-78 6 -113 -6z"/>
<path d="M30 845 l0 -155 30 0 30 0 0 155 0 155 -30 0 -30 0 0 -155z"/>
<path d="M160 845 l0 -155 95 0 c88 0 95 1 95 20 0 18 -7 20 -65 20 l-65 0 0
50 0 50 60 0 c53 0 60 2 60 20 0 18 -7 20 -60 20 l-60 0 0 45 0 45 60 0 c53 0
60 2 60 20 0 19 -7 20 -90 20 l-90 0 0 -155z"/>
<path d="M400 845 l0 -155 95 0 c88 0 95 1 95 20 0 18 -7 20 -65 20 l-65 0 0
50 0 50 60 0 c53 0 60 2 60 20 0 18 -7 20 -60 20 l-60 0 0 45 0 45 60 0 c53 0
60 2 60 20 0 19 -7 20 -90 20 l-90 0 0 -155z"/>
<path d="M640 845 l0 -155 94 0 c85 0 94 2 99 20 4 17 -1 19 -62 22 l-66 3 -3
48 -3 47 60 0 c54 0 61 2 61 20 0 16 -8 19 -57 22 l-58 3 0 40 0 40 63 3 c54
3 62 6 62 22 0 18 -7 20 -95 20 l-95 0 0 -155z"/>
<path d="M1260 845 l0 -155 30 0 30 0 0 155 0 155 -30 0 -30 0 0 -155z"/>
<path d="M1930 888 c0 -141 14 -176 78 -198 37 -13 47 -13 84 0 70 25 82 53
87 191 l3 119 -31 0 -31 0 0 -106 c0 -132 -14 -164 -72 -164 -47 0 -58 30 -58
157 l0 113 -30 0 -30 0 0 -112z"/>
<path d="M2240 845 l0 -155 30 0 30 0 0 155 0 155 -30 0 -30 0 0 -155z"/>
<path d="M2340 981 c0 -16 8 -20 43 -23 l42 -3 3 -132 3 -133 29 0 30 0 0 135
0 135 45 0 c38 0 45 3 45 20 0 19 -7 20 -120 20 -112 0 -120 -1 -120 -19z"/>
<path d="M3025 988 c-2 -7 -23 -71 -46 -143 -23 -71 -44 -136 -46 -142 -4 -9
5 -13 25 -13 27 0 32 5 45 43 14 42 14 42 63 42 49 0 49 0 64 -42 13 -39 18
-43 46 -43 l32 0 -51 155 -52 155 -38 0 c-21 0 -39 -5 -42 -12z m74 -150 c1
-14 -7 -18 -34 -18 -19 0 -35 2 -35 5 0 3 8 33 17 67 l17 61 17 -49 c10 -27
18 -57 18 -66z"/>
<path d="M3250 845 l0 -155 31 0 31 0 -3 115 c-2 63 -4 115 -3 115 1 0 31 -52
68 -115 62 -105 70 -115 97 -115 l29 0 0 155 0 155 -25 0 -25 0 0 -112 0 -113
-39 70 c-77 142 -88 155 -126 155 l-35 0 0 -155z"/>
<path d="M4259 905 c45 -84 51 -103 51 -155 0 -57 1 -60 25 -60 24 0 25 3 25
62 0 56 5 70 50 150 28 48 50 90 50 93 0 3 -13 5 -30 5 -27 0 -33 -6 -61 -67
l-31 -68 -34 68 c-31 61 -37 67 -65 67 l-31 0 51 -95z"/>
<path d="M4710 981 c0 -16 8 -20 43 -23 l42 -3 3 -132 3 -133 29 0 30 0 0 135
0 135 45 0 c38 0 45 3 45 20 0 19 -7 20 -120 20 -112 0 -120 -1 -120 -19z"/>
<path d="M4990 845 l0 -155 95 0 c88 0 95 2 95 20 0 17 -8 19 -67 22 l-68 3
-3 48 -3 47 60 0 c54 0 61 2 61 20 0 16 -8 19 -57 22 l-58 3 0 40 0 40 63 3
c54 3 62 6 62 22 0 18 -7 20 -90 20 l-90 0 0 -155z"/>
<path d="M5236 913 c-3 -49 -9 -118 -12 -155 -6 -67 -6 -68 19 -68 33 0 37 14
37 131 0 97 11 130 24 68 3 -17 18 -68 32 -115 23 -74 29 -84 50 -84 21 0 27
12 62 121 l39 122 6 -69 c4 -38 7 -93 7 -121 0 -52 0 -53 30 -53 l30 0 -5 68
c-3 37 -8 106 -11 155 l-6 87 -39 0 -38 0 -32 -102 c-32 -102 -49 -139 -49
-105 0 9 -14 60 -30 112 l-31 95 -38 0 -39 0 -6 -87z"/>
<path d="M6810 845 l0 -155 30 0 30 0 0 155 0 155 -30 0 -30 0 0 -155z"/>
<path d="M6940 845 l0 -155 95 0 c88 0 95 2 95 20 0 17 -8 19 -67 22 l-68 3 0
45 0 45 58 3 c48 3 57 6 57 22 0 16 -9 19 -57 22 l-58 3 0 40 0 40 63 3 c54 3
62 6 62 22 0 18 -7 20 -90 20 l-90 0 0 -155z"/>
<path d="M7150 980 c0 -17 7 -20 45 -20 l45 0 0 -135 0 -135 30 0 29 0 3 133
3 132 43 3 c34 3 42 7 42 23 0 18 -8 19 -120 19 -113 0 -120 -1 -120 -20z"/>
<path d="M7461 909 c44 -81 49 -96 49 -155 l0 -64 30 0 30 0 0 68 c0 47 5 76
18 97 10 17 33 56 51 88 l32 57 -33 0 c-32 0 -35 -4 -62 -65 -15 -36 -31 -65
-35 -65 -3 0 -19 30 -35 65 -27 61 -31 65 -62 65 l-32 0 49 -91z"/>
<path d="M175 320 c-7 -12 2 -30 16 -30 12 0 12 27 0 35 -5 3 -12 1 -16 -5z"/>
<path d="M632 238 c2 -70 6 -93 16 -93 11 0 14 21 14 90 0 75 -3 91 -16 93
-15 3 -16 -8 -14 -90z"/>
<path d="M894 319 c-8 -14 11 -33 25 -25 6 4 11 11 11 16 0 13 -29 20 -36 9z"/>
<path d="M1400 234 c0 -72 3 -95 13 -92 8 3 13 34 15 96 2 77 0 92 -13 92 -12
0 -15 -16 -15 -96z"/>
<path d="M2381 316 c-9 -10 -9 -16 -1 -21 17 -10 37 12 24 25 -8 8 -15 6 -23
-4z"/>
<path d="M3170 297 c0 -32 -2 -33 -32 -29 -38 6 -58 -16 -58 -63 0 -46 32 -72
70 -58 21 8 30 8 33 0 2 -6 7 -8 13 -5 5 3 8 47 6 97 -3 71 -7 91 -18 91 -9 0
-14 -11 -14 -33z m-5 -87 c0 -29 -4 -36 -22 -38 -17 -3 -24 3 -29 22 -7 30 11
58 35 54 11 -2 16 -14 16 -38z"/>
<path d="M4344 319 c-10 -17 13 -36 27 -22 12 12 4 33 -11 33 -5 0 -12 -5 -16
-11z"/>
<path d="M4760 320 c-12 -7 -12 -12 -2 -22 9 -9 15 -9 24 0 16 16 -2 34 -22
22z"/>
<path d="M5650 235 c0 -78 3 -95 15 -95 11 0 15 12 15 44 0 27 6 48 15 56 22
18 33 3 37 -50 2 -32 7 -45 18 -45 19 0 26 75 10 106 -9 17 -19 20 -46 17 -33
-4 -34 -3 -34 29 0 23 -5 33 -15 33 -12 0 -15 -17 -15 -95z"/>
<path d="M5955 320 c-10 -17 12 -37 25 -24 8 8 6 15 -4 23 -10 9 -16 9 -21 1z"/>
<path d="M6272 238 c2 -75 6 -93 18 -93 12 0 16 18 18 93 3 87 2 92 -18 92
-20 0 -21 -5 -18 -92z"/>
<path d="M7144 319 c-10 -17 13 -36 27 -22 12 12 4 33 -11 33 -5 0 -12 -5 -16
-11z"/>
<path d="M10 311 c0 -6 11 -46 25 -90 37 -115 53 -110 100 30 22 65 23 69 6
69 -14 0 -23 -16 -37 -65 -17 -59 -34 -85 -34 -52 0 35 -32 117 -45 117 -8 0
-15 -4 -15 -9z"/>
<path d="M766 304 c-28 -28 -13 -64 34 -84 41 -17 37 -45 -7 -46 -39 0 -53
-11 -33 -24 23 -15 67 -12 84 6 29 28 20 61 -25 89 -34 22 -39 29 -28 41 7 9
23 14 36 11 15 -3 23 1 23 9 0 20 -65 18 -84 -2z"/>
<path d="M1520 230 c0 -73 3 -90 15 -90 10 0 15 11 15 35 0 30 3 35 23 35 33
0 67 28 67 55 0 36 -26 55 -76 55 l-44 0 0 -90z m79 56 c15 -17 5 -43 -19 -49
-24 -6 -30 0 -30 35 0 21 5 28 19 28 10 0 24 -6 30 -14z"/>
<path d="M3315 295 c-18 -17 -25 -35 -25 -63 0 -57 26 -85 80 -86 26 -1 45 4
47 12 3 8 -7 12 -31 12 -60 0 -88 68 -45 111 15 15 30 20 50 17 20 -3 29 0 29
9 0 24 -78 16 -105 -12z"/>
<path d="M5263 308 c2 -7 13 -12 25 -10 20 3 21 -2 24 -75 2 -58 7 -78 17 -78
10 0 14 19 15 75 1 72 2 75 25 75 13 0 26 6 29 13 3 9 -15 12 -68 12 -53 0
-71 -3 -67 -12z"/>
<path d="M6415 295 c-62 -62 -5 -170 81 -153 34 6 27 28 -10 28 -60 0 -88 68
-45 111 15 15 30 20 50 17 20 -3 29 0 29 9 0 24 -78 16 -105 -12z"/>
<path d="M4673 293 c-4 -10 -11 -22 -17 -26 -8 -6 -7 -10 2 -14 7 -3 12 -22
12 -47 0 -23 5 -47 12 -54 17 -17 48 -15 48 3 0 8 -7 15 -15 15 -11 0 -15 11
-15 40 0 29 4 40 15 40 8 0 15 5 15 10 0 6 -7 10 -15 10 -8 0 -15 9 -15 20 0
25 -18 26 -27 3z"/>
<path d="M7215 284 c-12 -19 -14 -29 -6 -37 6 -6 11 -30 11 -53 0 -34 4 -44
20 -49 21 -7 40 0 40 16 0 5 -7 9 -15 9 -11 0 -15 11 -15 40 0 29 4 40 15 40
8 0 15 5 15 10 0 6 -7 10 -15 10 -8 0 -15 9 -15 20 0 28 -14 25 -35 -6z"/>
<path d="M7313 293 c-4 -10 -11 -22 -17 -26 -8 -6 -7 -10 2 -14 7 -3 12 -22
12 -47 0 -23 5 -47 12 -54 17 -17 48 -15 48 3 0 8 -7 15 -15 15 -11 0 -15 11
-15 40 0 29 4 40 15 40 8 0 15 5 15 10 0 6 -7 10 -15 10 -8 0 -15 9 -15 20 0
25 -18 26 -27 3z"/>
<path d="M170 205 c0 -51 3 -65 15 -65 12 0 15 14 15 65 0 51 -3 65 -15 65
-12 0 -15 -14 -15 -65z"/>
<path d="M240 250 c-8 -15 -6 -24 9 -39 10 -10 24 -20 32 -23 24 -8 -1 -28
-28 -22 -19 5 -24 3 -21 -7 2 -8 17 -15 32 -17 55 -7 76 44 31 74 -30 20 -32
34 -5 34 11 0 20 5 20 10 0 19 -59 11 -70 -10z"/>
<path d="M350 216 c0 -63 10 -74 68 -73 l42 2 0 62 c0 48 -3 63 -14 63 -11 0
-16 -14 -18 -47 -3 -40 -6 -48 -23 -48 -17 0 -20 8 -23 48 -2 33 -7 47 -18 47
-10 0 -14 -14 -14 -54z"/>
<path d="M500 260 c0 -5 13 -10 28 -10 42 0 47 -12 11 -24 -72 -24 -63 -81 12
-81 l44 0 3 42 c5 62 -10 83 -58 83 -22 0 -40 -4 -40 -10z m66 -61 c10 -17
-23 -46 -38 -31 -8 8 -8 15 2 27 15 18 26 19 36 4z"/>
<path d="M892 208 c2 -48 7 -63 18 -63 11 0 16 15 18 63 3 57 1 62 -18 62 -19
0 -21 -5 -18 -62z"/>
<path d="M965 248 c-21 -32 -19 -55 9 -83 21 -21 29 -23 50 -15 27 10 32 5 16
-20 -5 -8 -23 -15 -40 -15 -41 0 -39 -19 2 -23 56 -5 72 16 76 101 l4 74 -51
1 c-41 1 -53 -2 -66 -20z m70 -38 c0 -28 -4 -35 -20 -35 -13 0 -21 8 -23 23
-5 34 5 54 25 50 13 -2 18 -13 18 -38z"/>
<path d="M1112 207 c4 -73 28 -94 28 -24 0 28 6 49 15 57 22 18 33 3 37 -50 2
-32 7 -45 18 -45 19 0 26 75 10 104 -8 17 -20 20 -61 19 l-50 -1 3 -60z"/>
<path d="M1265 260 c-4 -6 6 -10 24 -10 41 0 48 -17 11 -25 -37 -8 -55 -37
-40 -64 8 -15 20 -19 55 -18 l45 2 0 51 c0 27 -5 55 -12 62 -15 15 -74 16 -83
2z m65 -64 c0 -7 -7 -19 -15 -26 -12 -10 -16 -9 -21 5 -4 10 -1 21 7 26 20 12
29 11 29 -5z"/>
<path d="M1662 206 c2 -46 7 -61 18 -61 11 0 16 13 18 46 2 37 7 48 23 52 34
9 20 26 -21 25 l-41 0 3 -62z"/>
<path d="M1766 254 c-24 -24 -20 -80 6 -98 33 -23 64 -19 87 10 25 32 26 52 5
82 -18 26 -74 30 -98 6z m72 -37 c5 -38 -14 -60 -39 -46 -35 18 -17 84 21 77
8 -2 16 -16 18 -31z"/>
<path d="M1916 254 c-25 -25 -20 -81 8 -100 26 -16 71 -16 70 1 0 6 -13 12
-30 15 -52 9 -41 80 12 80 13 0 24 5 24 10 0 16 -67 12 -84 -6z"/>
<path d="M2026 248 c-35 -50 -2 -112 56 -106 45 4 49 28 5 28 -22 0 -37 6 -41
15 -4 12 4 15 39 15 48 0 56 11 35 51 -15 28 -74 26 -94 -3z m72 -15 c2 -9 -7
-13 -27 -13 -23 0 -29 4 -24 16 6 17 44 15 51 -3z"/>
<path d="M2160 255 c-16 -20 -6 -43 25 -57 33 -15 26 -34 -10 -30 -33 4 -30
-21 3 -26 59 -9 82 51 29 76 -30 14 -28 32 4 32 10 0 19 5 19 10 0 16 -56 12
-70 -5z"/>
<path d="M2270 255 c-16 -20 -6 -43 25 -57 33 -15 26 -34 -10 -30 -33 4 -30
-21 3 -26 59 -9 82 51 29 76 -30 14 -28 32 4 32 10 0 19 5 19 10 0 16 -56 12
-70 -5z"/>
<path d="M2380 204 c0 -48 3 -65 13 -62 7 3 13 28 15 66 2 51 0 62 -13 62 -12
0 -15 -13 -15 -66z"/>
<path d="M2442 206 c2 -46 7 -61 18 -61 11 0 16 13 18 48 2 32 8 50 19 54 21
8 33 -14 33 -64 0 -32 4 -43 15 -43 19 0 21 102 3 118 -7 6 -35 10 -61 10
l-48 -1 3 -61z"/>
<path d="M2600 250 c-15 -28 -12 -76 5 -90 8 -7 28 -10 45 -8 20 3 30 0 30 -8
0 -19 -33 -34 -60 -27 -17 4 -21 2 -18 -8 7 -21 67 -23 89 -3 15 14 19 31 19
89 l0 72 -50 2 c-39 0 -52 -3 -60 -19z m75 -40 c0 -29 -4 -36 -22 -38 -17 -3
-24 3 -29 22 -7 30 11 58 35 54 11 -2 16 -14 16 -38z"/>
<path d="M2805 260 c-4 -6 6 -10 24 -10 41 0 48 -17 11 -25 -37 -8 -55 -37
-40 -64 8 -15 20 -19 55 -18 l45 2 0 51 c0 27 -5 55 -12 62 -15 15 -74 16 -83
2z m65 -64 c0 -24 -26 -38 -39 -22 -10 11 -8 17 6 25 25 14 33 14 33 -3z"/>
<path d="M2937 206 c1 -43 5 -61 15 -61 8 0 15 18 18 50 4 42 8 50 25 50 17 0
20 -8 23 -52 2 -38 7 -53 18 -53 18 0 20 103 2 118 -7 6 -33 10 -58 10 l-45
-1 2 -61z"/>
<path d="M3456 254 c-24 -24 -20 -80 6 -98 33 -23 64 -19 87 10 25 32 26 52 5
82 -18 26 -74 30 -98 6z m72 -40 c4 -40 -19 -61 -42 -39 -19 20 -21 46 -4 63
21 21 43 9 46 -24z"/>
<path d="M3592 206 c2 -46 7 -61 18 -61 11 0 16 14 20 50 4 36 9 50 20 50 11
0 16 -14 20 -50 4 -36 9 -50 20 -50 11 0 14 9 12 32 -4 36 14 76 31 70 7 -2
14 -25 17 -52 3 -27 11 -50 18 -53 10 -3 12 11 10 59 l-3 64 -93 1 -93 1 3
-61z"/>
<path d="M3820 204 c0 -50 3 -64 15 -64 11 0 15 12 15 50 0 37 4 52 16 57 22
8 34 -14 34 -65 0 -59 24 -51 28 9 4 52 15 67 37 49 9 -8 15 -29 15 -57 0 -58
24 -54 28 5 5 72 -5 79 -103 79 l-85 0 0 -63z"/>
<path d="M4040 221 c0 -32 6 -55 16 -65 18 -19 50 -21 60 -5 5 8 9 8 14 -1 16
-26 30 3 30 61 0 46 -3 59 -15 59 -10 0 -15 -10 -15 -34 0 -47 -9 -66 -30 -66
-21 0 -30 19 -30 66 0 24 -5 34 -15 34 -11 0 -15 -12 -15 -49z"/>
<path d="M4192 206 c2 -46 7 -61 18 -61 11 0 14 9 12 35 -2 19 3 44 11 55 23
30 47 4 47 -52 0 -62 24 -52 28 11 4 63 -8 76 -69 74 l-50 -1 3 -61z"/>
<path d="M4342 208 c2 -48 7 -63 18 -63 11 0 16 15 18 63 3 57 1 62 -18 62
-19 0 -21 -5 -18 -62z"/>
<path d="M4427 258 c-46 -36 -16 -118 44 -118 38 0 39 27 2 32 -48 5 -40 78 8
78 11 0 19 5 19 10 0 14 -53 12 -73 -2z"/>
<path d="M4530 260 c0 -5 13 -10 28 -10 42 0 48 -13 11 -25 -74 -25 -64 -80
15 -80 l46 -1 0 51 c0 28 -5 56 -12 63 -14 14 -88 16 -88 2z m70 -64 c0 -21
-23 -36 -40 -26 -11 7 -11 11 -1 24 16 20 41 21 41 2z"/>
<path d="M4752 208 c2 -48 7 -63 18 -63 11 0 16 15 18 63 3 57 1 62 -18 62
-19 0 -21 -5 -18 -62z"/>
<path d="M4831 256 c-21 -25 -16 -77 9 -98 27 -22 49 -23 78 -2 25 17 31 81
10 102 -17 17 -83 15 -97 -2z m77 -42 c4 -38 -20 -63 -43 -44 -15 13 -21 61
-8 74 4 4 16 6 28 4 14 -2 21 -12 23 -34z"/>
<path d="M4972 207 c4 -73 28 -94 28 -24 0 52 20 78 45 57 9 -8 15 -30 15 -57
0 -58 24 -54 28 5 5 65 -9 82 -69 80 l-50 -1 3 -60z"/>
<path d="M5127 263 c-15 -14 -6 -42 20 -61 29 -21 24 -47 -8 -37 -11 4 -19 2
-19 -5 0 -27 73 -23 84 5 8 22 -2 41 -30 53 -31 15 -31 32 1 32 14 0 25 5 25
10 0 11 -63 14 -73 3z"/>
<path d="M5406 255 c-25 -26 -21 -81 8 -100 26 -17 77 -17 77 0 0 6 -15 12
-32 15 -49 8 -49 30 0 30 47 0 54 8 38 41 -15 30 -67 38 -91 14z m64 -20 c0
-9 -9 -15 -25 -15 -24 0 -32 10 -18 23 12 13 43 7 43 -8z"/>
<path d="M5547 258 c-48 -37 -14 -122 47 -116 39 4 40 21 0 28 -21 4 -30 12
-32 28 -4 28 14 52 39 52 11 0 19 5 19 10 0 14 -53 12 -73 -2z"/>
<path d="M5802 207 c4 -73 28 -94 28 -24 0 56 24 82 47 52 8 -11 13 -36 11
-55 -2 -26 1 -35 12 -35 19 0 26 75 10 104 -8 17 -20 20 -61 19 l-50 -1 3 -60z"/>
<path d="M5952 208 c2 -38 8 -63 16 -66 9 -3 12 14 12 62 0 53 -3 66 -15 66
-13 0 -15 -11 -13 -62z"/>
<path d="M6026 248 c-22 -31 -20 -64 4 -88 24 -24 80 -27 80 -5 0 9 -9 15 -25
15 -30 0 -46 27 -34 58 6 15 17 22 34 22 14 0 25 5 25 10 0 6 -15 10 -34 10
-25 0 -39 -7 -50 -22z"/>
<path d="M6140 260 c0 -5 14 -10 30 -10 39 0 38 -11 -3 -30 -61 -29 -43 -81
27 -77 41 3 41 3 44 45 5 61 -10 82 -58 82 -22 0 -40 -4 -40 -10z m66 -61 c10
-17 -23 -46 -38 -31 -8 8 -8 15 2 27 15 18 26 19 36 4z"/>
<path d="M6557 252 c-37 -40 -6 -112 47 -112 27 0 66 42 66 69 0 9 -7 27 -16
39 -19 28 -74 30 -97 4z m71 -38 c4 -40 -19 -61 -42 -39 -19 20 -21 46 -4 63
21 21 43 9 46 -24z"/>
<path d="M6697 206 c1 -43 5 -61 15 -61 8 0 15 18 18 50 4 36 9 50 20 50 11 0
16 -14 20 -50 4 -36 9 -50 20 -50 11 0 16 14 20 50 4 36 9 50 20 50 11 0 16
-14 20 -49 3 -28 11 -51 18 -54 10 -3 12 11 10 59 l-3 64 -90 1 -90 1 2 -61z"/>
<path d="M6920 204 c0 -49 3 -64 14 -64 11 0 16 15 18 53 3 44 6 52 23 52 17
0 20 -8 23 -52 2 -38 7 -53 18 -53 10 0 14 13 14 50 0 37 4 52 16 57 22 8 34
-14 34 -65 0 -30 4 -42 13 -40 15 6 22 95 7 112 -7 9 -38 13 -95 13 l-85 0 0
-63z"/>
<path d="M7142 208 c2 -48 7 -63 18 -63 11 0 16 15 18 63 3 57 1 62 -18 62
-19 0 -21 -5 -18 -62z"/>
<path d="M7400 251 c-5 -11 -10 -33 -10 -50 0 -37 35 -64 77 -59 37 4 32 22
-8 28 -49 8 -49 30 0 30 36 0 41 3 41 23 0 32 -18 47 -57 47 -22 0 -36 -6 -43
-19z m70 -16 c0 -9 -9 -15 -25 -15 -24 0 -32 10 -18 23 12 13 43 7 43 -8z"/>
<path d="M7536 248 c-35 -50 -2 -112 56 -106 45 4 49 28 5 28 -22 0 -37 6 -41
15 -4 12 4 15 39 15 48 0 56 11 35 51 -15 28 -74 26 -94 -3z m72 -15 c2 -8 -6
-13 -22 -13 -17 0 -26 5 -26 16 0 19 41 16 48 -3z"/>
</g>
</svg>
