<?xml version="1.0" standalone="no"?>
<!DOCTYPE svg PUBLIC "-//W3C//DTD SVG 20010904//EN"
 "http://www.w3.org/TR/2001/REC-SVG-20010904/DTD/svg10.dtd">
<svg version="1.0" xmlns="http://www.w3.org/2000/svg"
 width="501.000000pt" height="498.000000pt" viewBox="0 0 501.000000 498.000000"
 preserveAspectRatio="xMidYMid meet">

<g transform="translate(0.000000,498.000000) scale(0.100000,-0.100000)"
fill="#000000" stroke="none">
<path d="M360 3318 c-35 -5 -72 -16 -82 -25 -11 -10 -18 -12 -18 -5 0 7 -14
12 -32 12 -30 0 -30 -1 -14 -19 14 -15 16 -29 11 -64 -6 -37 -12 -48 -35 -57
-51 -21 -63 -42 -49 -88 16 -56 41 -66 141 -59 46 3 97 9 113 12 30 6 31 5 48
-49 12 -40 28 -67 57 -93 44 -41 49 -63 23 -91 -31 -32 -64 -82 -54 -82 5 0
13 -12 18 -27 l9 -27 17 41 c8 22 23 43 31 46 9 4 16 12 16 19 1 21 115 68
166 68 24 0 61 7 81 15 42 18 53 19 53 5 0 -5 -12 -13 -27 -17 -25 -7 -23 -8
22 -15 148 -22 158 -22 190 6 30 26 100 46 162 46 28 0 47 -10 89 -45 49 -42
104 -61 104 -35 0 6 5 10 11 10 7 0 8 -7 4 -17 -13 -30 -24 -97 -18 -107 11
-17 33 27 33 65 0 20 7 56 15 79 19 53 19 91 1 116 -15 19 -15 19 -30 -1 -8
-11 -13 -27 -10 -37 3 -9 1 -19 -5 -22 -5 -3 -16 13 -24 36 -28 77 -63 156
-77 173 -13 16 -11 17 25 12 22 -3 62 -13 89 -21 27 -9 63 -15 80 -15 24 1 20
3 -16 9 -26 5 -80 24 -120 44 -41 20 -83 36 -94 36 -38 0 -208 61 -252 90 -25
17 -50 30 -56 30 -6 0 -30 13 -52 28 -40 28 -43 28 -125 20 -46 -5 -120 -6
-164 -3 l-80 6 -12 -31 c-14 -38 -59 -58 -82 -35 -14 13 -14 18 2 45 21 35 26
34 -83 18z m1080 -441 c0 -34 -11 -67 -21 -62 -4 3 -3 19 3 35 5 17 7 37 4 46
-3 8 -2 12 4 9 6 -3 10 -16 10 -28z"/>
<path d="M1588 3101 c-8 -10 -25 -21 -38 -24 -15 -2 -6 -5 21 -6 35 -1 48 3
53 15 13 34 -15 45 -36 15z"/>
<path d="M420 2861 c-41 -27 -69 -64 -76 -101 -9 -45 -19 -57 -55 -65 -24 -6
-28 -9 -18 -21 15 -18 39 -18 39 1 0 10 10 15 28 15 25 0 29 6 45 61 15 53 22
62 52 75 37 15 43 25 23 42 -9 7 -21 5 -38 -7z"/>
<path d="M4408 2253 c-37 -76 -83 -174 -103 -218 -50 -109 -144 -294 -167
-327 -19 -27 -69 -58 -95 -58 -7 0 -13 -4 -13 -10 0 -6 52 -10 135 -10 138 0
170 10 95 30 -48 13 -51 28 -16 100 14 28 28 64 31 80 l7 30 179 0 179 0 35
-70 c19 -38 35 -83 35 -99 0 -26 -5 -30 -45 -40 -25 -6 -45 -17 -45 -24 0 -9
37 -11 152 -9 174 3 195 7 158 27 -14 8 -34 14 -45 15 -28 0 -87 105 -258 460
-12 25 -27 52 -34 60 -6 8 -23 51 -38 95 -50 147 -61 144 -147 -32z m95 -70
c22 -41 87 -201 104 -255 5 -17 -6 -18 -146 -18 -138 0 -172 6 -141 25 6 3 10
13 10 22 0 8 8 27 18 41 10 15 28 54 41 87 28 71 69 145 80 145 4 0 19 -21 34
-47z"/>
<path d="M140 2366 c0 -9 2 -16 4 -16 28 0 112 -23 118 -33 11 -17 10 -609 -2
-627 -5 -8 -33 -20 -61 -25 -29 -6 -54 -16 -57 -23 -3 -9 39 -12 187 -12 112
0 191 4 191 9 0 10 -32 23 -46 20 -14 -3 -67 13 -81 24 -9 7 -13 49 -13 146
l0 136 118 0 c107 0 122 2 172 27 71 35 121 105 128 177 6 66 -2 93 -40 137
-57 65 -73 68 -360 72 -231 3 -258 2 -258 -12z m440 -42 c18 -4 50 -24 71 -44
37 -35 39 -40 39 -100 0 -73 -22 -117 -75 -150 -40 -25 -122 -36 -189 -26
l-46 7 0 160 0 159 84 0 c46 0 98 -3 116 -6z"/>
<path d="M852 2368 c3 -7 22 -16 44 -20 21 -5 51 -13 67 -19 l27 -11 -1 -307
c0 -288 -4 -346 -22 -340 -16 4 -117 -23 -117 -32 0 -5 80 -9 190 -9 118 0
190 4 190 10 0 5 -12 12 -27 16 -16 3 -46 11 -68 17 l-40 12 -3 148 -3 147 54
0 c54 0 54 0 113 -66 32 -36 63 -73 69 -82 5 -10 41 -59 79 -110 l70 -92 113
0 c62 0 113 4 113 9 0 4 -21 14 -47 21 -76 21 -95 34 -161 112 -33 40 -86 100
-117 133 -31 33 -54 66 -53 73 2 8 27 24 56 36 166 67 194 260 47 335 -49 26
-53 26 -313 29 -211 3 -263 1 -260 -10z m466 -52 c55 -29 76 -62 80 -129 3
-56 1 -66 -25 -98 -44 -57 -58 -63 -175 -67 l-108 -4 0 149 c0 82 3 153 7 156
13 13 193 7 221 -7z"/>
<path d="M1612 2368 c3 -7 31 -20 64 -28 l59 -15 5 -265 c5 -243 7 -269 26
-311 12 -25 37 -57 55 -71 65 -48 109 -58 252 -58 124 0 137 2 186 26 63 32
94 61 123 117 20 39 23 61 29 295 3 139 10 256 13 260 4 4 30 14 58 22 28 9
53 21 55 27 3 9 -37 12 -156 11 -128 -1 -161 -4 -161 -15 0 -7 10 -13 24 -13
34 0 93 -27 100 -45 9 -23 7 -325 -3 -415 -10 -98 -33 -144 -86 -175 -58 -35
-128 -46 -210 -34 -84 12 -120 32 -160 88 l-30 43 0 253 c0 139 3 257 7 261 4
3 31 12 60 18 28 7 54 18 56 24 3 9 -43 12 -183 12 -145 0 -186 -3 -183 -12z"/>
<path d="M2560 2370 c0 -9 90 -40 116 -40 6 0 15 -7 18 -16 3 -9 6 -152 6
-319 0 -344 8 -312 -87 -335 -29 -6 -53 -16 -53 -21 0 -6 138 -8 336 -7 l335
3 35 90 c18 50 34 91 34 93 0 1 -8 2 -19 2 -12 0 -32 -22 -56 -61 -21 -33 -46
-64 -56 -70 -10 -5 -97 -9 -193 -9 l-176 0 0 160 0 160 134 0 c148 0 153 -2
163 -64 3 -21 11 -36 19 -36 11 0 14 27 14 131 0 98 -3 130 -12 127 -7 -3 -17
-24 -23 -47 -5 -23 -17 -46 -25 -51 -8 -4 -73 -11 -143 -15 l-128 -8 3 144 3
144 164 3 c121 2 167 -1 179 -10 8 -7 26 -37 39 -66 34 -76 49 -65 44 34 -2
43 -5 82 -8 87 -7 11 -663 9 -663 -3z"/>
<path d="M3352 2369 c2 -6 28 -18 57 -26 29 -7 57 -16 62 -19 5 -3 9 -148 9
-324 l0 -319 -37 -10 c-21 -5 -50 -13 -65 -17 -71 -17 -10 -24 204 -24 229 0
234 0 301 27 99 39 157 113 157 202 0 86 -61 147 -164 165 -41 7 -41 11 1 24
103 31 153 154 100 247 -41 74 -64 80 -366 83 -204 3 -262 1 -259 -9z m477
-52 c13 -6 37 -29 54 -49 26 -33 29 -41 23 -82 -8 -53 -45 -103 -92 -122 -18
-7 -75 -16 -128 -20 l-96 -7 0 147 0 146 108 0 c65 0 116 -5 131 -13z m2 -328
c72 -25 115 -87 105 -156 -8 -61 -28 -95 -77 -129 -41 -28 -47 -29 -153 -29
l-111 0 -3 163 -2 162 103 0 c57 0 119 -5 138 -11z"/>
<path d="M0 20 c0 -17 6 -20 43 -19 23 1 32 4 20 6 -13 2 -23 11 -23 19 0 8
-9 14 -20 14 -13 0 -20 -7 -20 -20z"/>
</g>
</svg>
