<?xml version="1.0" encoding="UTF-8"?>
<svg xmlns="http://www.w3.org/2000/svg" xmlns:xlink="http://www.w3.org/1999/xlink" width="75pt" height="59pt" viewBox="0 0 75 59" version="1.1">
<g id="surface1">
<path style=" stroke:none;fill-rule:evenodd;fill:rgb(83.499146%,8.198547%,27.099609%);fill-opacity:1;" d="M 37.703125 6.917969 C 46.046875 6.917969 52.816406 13.6875 52.816406 22.03125 C 52.816406 30.378906 46.046875 37.144531 37.703125 37.144531 C 29.359375 37.144531 22.589844 30.378906 22.589844 22.03125 C 22.589844 13.6875 29.359375 6.917969 37.703125 6.917969 "/>
<path style=" stroke:none;fill-rule:evenodd;fill:rgb(100%,100%,100%);fill-opacity:1;" d="M 36.359375 34.980469 C 36.890625 29.652344 38.65625 20.109375 41.628906 15.695313 C 43.8125 12.457031 45.496094 13.40625 46.929688 13.675781 C 46.519531 13.742188 43.222656 11.066406 39.894531 13.824219 C 38.160156 15.257813 37.316406 17.222656 36.066406 19.527344 C 35.632813 19.011719 35.238281 18.042969 34.808594 17.425781 C 34.277344 16.660156 33.84375 16.140625 33.21875 15.558594 C 31.179688 13.65625 30.019531 14.453125 28.476563 15.144531 C 28.511719 15.167969 28.558594 15.183594 28.585938 15.195313 C 28.613281 15.207031 28.660156 15.230469 28.695313 15.242188 C 28.730469 15.253906 28.769531 15.269531 28.808594 15.28125 C 28.84375 15.292969 28.882813 15.300781 28.921875 15.3125 C 29.285156 15.414063 29.421875 15.378906 29.828125 15.628906 C 32.90625 17.511719 34.664063 25.730469 35.3125 29.054688 C 35.453125 29.957031 36.003906 34.445313 36.359375 34.980469 "/>
<path style=" stroke:none;fill-rule:evenodd;fill:rgb(83.499146%,8.198547%,27.099609%);fill-opacity:1;" d="M 12.3125 39.113281 C 13.890625 38.761719 15.675781 38.941406 15.609375 40.722656 C 15.546875 42.363281 13.820313 42.40625 12.316406 42.160156 Z M 10.410156 47.675781 C 10.945313 47.917969 11.65625 47.839844 12.253906 47.773438 L 12.320313 43.8125 L 13.714844 43.816406 L 15.839844 47.777344 L 17.84375 47.820313 C 17.660156 46.640625 16.078125 44.671875 15.710938 43.4375 C 18.171875 42.304688 19.277344 37.085938 12.671875 37.359375 C 11.710938 37.398438 10.417969 37.21875 10.363281 38.222656 Z M 28.289063 46.328125 C 28.265625 46.292969 28.242188 46.191406 28.234375 46.210938 L 28.144531 45.964844 C 28.136719 45.921875 28.128906 45.886719 28.117188 45.835938 C 28.09375 45.6875 28.101563 45.308594 28.101563 45.144531 L 28.199219 41.597656 C 28.207031 41.566406 28.222656 41.519531 28.238281 41.484375 C 30.488281 40.945313 30.921875 41.851563 30.914063 43.898438 C 30.910156 45.914063 30.488281 46.78125 28.289063 46.328125 Z M 28.113281 39.917969 L 28.101563 37.335938 C 27.554688 37.117188 26.8125 37.109375 26.304688 37.355469 C 26.070313 39.425781 26.304688 43.816406 26.265625 46.394531 C 26.253906 47.269531 26.113281 47.445313 26.894531 47.640625 C 27.789063 47.867188 29.34375 48.023438 30.316406 47.851563 C 32.574219 47.445313 32.957031 45.328125 32.71875 42.789063 C 32.46875 40.082031 30.800781 39.832031 28.113281 39.917969 Z M 38.371094 45.28125 C 38.003906 46.480469 36.507813 46.671875 35.898438 45.832031 C 35.457031 45.21875 35.371094 43.117188 35.699219 42.320313 C 36.09375 41.355469 37.445313 41.136719 38.101563 41.960938 C 38.589844 42.574219 38.628906 44.429688 38.371094 45.28125 Z M 36.039063 39.976563 C 33.847656 40.519531 33.453125 42.550781 33.714844 44.992188 C 33.9375 47.046875 35.589844 48.425781 37.992188 47.816406 C 40.152344 47.265625 40.523438 45.21875 40.289063 42.800781 C 40.085938 40.71875 38.351563 39.402344 36.039063 39.976563 Z M 21.316406 41.546875 C 23.699219 40.636719 23.804688 45.703125 22.304688 46.226563 C 20.921875 46.710938 20.308594 45.625 20.265625 44.460938 C 20.207031 43.007813 20.152344 41.992188 21.316406 41.546875 Z M 20.8125 39.960938 C 18.691406 40.480469 18.230469 42.375 18.4375 44.871094 C 18.613281 47.015625 20.273438 48.378906 22.679688 47.828125 C 24.785156 47.34375 25.25 45.363281 25.035156 42.925781 C 24.84375 40.789063 23.191406 39.378906 20.8125 39.960938 Z M 50.613281 41.550781 C 52.992188 40.640625 53.140625 45.742188 51.507813 46.253906 C 50.214844 46.65625 49.617188 45.628906 49.5625 44.460938 C 49.492188 43.007813 49.464844 41.992188 50.613281 41.550781 Z M 50.117188 39.96875 C 46.285156 40.84375 46.789063 49.21875 52.097656 47.796875 C 54.121094 47.253906 54.570313 45.273438 54.332031 42.839844 C 54.128906 40.738281 52.488281 39.425781 50.117188 39.96875 Z M 41.425781 47.460938 C 41.984375 47.984375 46.664063 48.726563 46.789063 45.828125 C 46.90625 43.15625 42.703125 42.941406 43.191406 41.703125 C 43.347656 41.519531 43.148438 41.546875 43.644531 41.414063 C 45.074219 41.03125 46.925781 42.371094 46.632813 40.605469 C 46.535156 40.023438 46.292969 40.078125 45.632813 39.980469 C 43.546875 39.667969 41.203125 39.695313 41.257813 41.964844 C 41.304688 43.84375 43.429688 44.253906 44.550781 45.1875 C 45.855469 46.28125 44.050781 46.441406 43.070313 46.386719 C 42.832031 46.371094 41.726563 46.242188 41.582031 46.292969 C 41.292969 46.398438 41.316406 46.328125 41.292969 46.800781 C 41.273438 47.160156 41.316406 47.265625 41.425781 47.460938 Z M 55.570313 47.714844 C 56.113281 47.882813 56.726563 47.847656 57.292969 47.757813 L 57.359375 41.351563 L 59.542969 41.324219 C 59.601563 40.734375 59.667969 40.492188 59.449219 39.972656 L 57.367188 39.933594 C 57.316406 38 57.652344 38.488281 59.457031 38.4375 C 59.660156 37.925781 59.617188 37.804688 59.527344 37.265625 C 58.738281 36.847656 57.160156 36.933594 56.414063 37.335938 C 55.515625 37.8125 55.492188 38.8125 55.496094 40.167969 C 55.496094 41.804688 55.289063 46.425781 55.570313 47.714844 Z M 65 47.71875 L 65.03125 46.558594 C 64.1875 46.382813 63.46875 46.671875 62.976563 46.25 C 62.613281 45.691406 62.703125 42.191406 62.886719 41.339844 C 63.582031 41.347656 64.34375 41.429688 65.003906 41.234375 C 65.222656 39.378906 64.539063 40.003906 62.828125 39.921875 L 62.792969 38.488281 C 62.292969 38.234375 61.355469 38.4375 61.140625 38.601563 C 60.753906 38.902344 60.957031 43.679688 60.957031 44.3125 C 60.957031 45.523438 60.777344 46.863281 61.582031 47.507813 C 62.296875 48.078125 64.226563 48.011719 65 47.71875 "/>
<path style=" stroke:none;fill-rule:nonzero;fill:rgb(83.499146%,8.198547%,27.099609%);fill-opacity:1;" d="M 10.089844 52.515625 L 10.089844 50.128906 L 11.789063 50.128906 L 11.789063 50.425781 L 10.410156 50.425781 L 10.410156 51.136719 L 11.6875 51.136719 L 11.6875 51.417969 L 10.410156 51.417969 L 10.410156 52.214844 L 11.820313 52.214844 L 11.820313 52.515625 Z M 12.507813 50.480469 L 12.507813 52.515625 L 12.210938 52.515625 L 12.210938 50.128906 L 12.671875 50.128906 L 13.265625 51.953125 C 13.28125 52.003906 13.292969 52.046875 13.300781 52.074219 C 13.308594 52.101563 13.316406 52.128906 13.320313 52.148438 C 13.328125 52.109375 13.335938 52.074219 13.347656 52.042969 C 13.355469 52.011719 13.363281 51.980469 13.375 51.953125 L 13.984375 50.128906 L 14.449219 50.128906 L 14.449219 52.515625 L 14.136719 52.515625 L 14.136719 50.480469 C 14.128906 50.515625 14.121094 50.550781 14.109375 50.585938 C 14.101563 50.621094 14.089844 50.65625 14.082031 50.691406 L 13.464844 52.515625 L 13.160156 52.515625 L 12.5625 50.691406 C 12.550781 50.660156 12.542969 50.628906 12.53125 50.59375 C 12.523438 50.558594 12.515625 50.523438 12.507813 50.480469 Z M 15.195313 51.324219 C 15.195313 51.628906 15.265625 51.867188 15.40625 52.039063 C 15.546875 52.210938 15.742188 52.296875 15.988281 52.296875 C 16.238281 52.296875 16.433594 52.210938 16.574219 52.039063 C 16.710938 51.867188 16.78125 51.628906 16.78125 51.324219 C 16.78125 51.015625 16.710938 50.777344 16.574219 50.605469 C 16.433594 50.433594 16.238281 50.347656 15.988281 50.347656 C 15.742188 50.347656 15.546875 50.433594 15.40625 50.605469 C 15.265625 50.777344 15.195313 51.015625 15.195313 51.324219 Z M 14.859375 51.324219 C 14.859375 50.929688 14.957031 50.621094 15.160156 50.398438 C 15.359375 50.179688 15.636719 50.066406 15.988281 50.066406 C 16.34375 50.066406 16.617188 50.179688 16.816406 50.398438 C 17.019531 50.621094 17.117188 50.929688 17.117188 51.324219 C 17.117188 51.71875 17.019531 52.027344 16.816406 52.246094 C 16.617188 52.46875 16.34375 52.582031 15.988281 52.582031 C 15.636719 52.582031 15.359375 52.46875 15.160156 52.246094 C 14.957031 52.027344 14.859375 51.71875 14.859375 51.324219 Z M 18.050781 52.515625 L 18.050781 50.417969 L 17.296875 50.417969 L 17.296875 50.128906 L 19.128906 50.128906 L 19.128906 50.417969 L 18.378906 50.417969 L 18.378906 52.515625 Z M 19.425781 52.515625 L 19.425781 50.128906 L 19.75 50.128906 L 19.75 52.515625 Z M 20.5 51.324219 C 20.5 51.628906 20.570313 51.867188 20.710938 52.039063 C 20.851563 52.210938 21.046875 52.296875 21.296875 52.296875 C 21.546875 52.296875 21.738281 52.210938 21.878906 52.039063 C 22.019531 51.867188 22.089844 51.628906 22.089844 51.324219 C 22.089844 51.015625 22.019531 50.777344 21.878906 50.605469 C 21.738281 50.433594 21.546875 50.347656 21.296875 50.347656 C 21.046875 50.347656 20.851563 50.433594 20.710938 50.605469 C 20.570313 50.777344 20.5 51.015625 20.5 51.324219 Z M 20.164063 51.324219 C 20.164063 50.929688 20.265625 50.621094 20.464844 50.398438 C 20.667969 50.179688 20.945313 50.066406 21.296875 50.066406 C 21.652344 50.066406 21.925781 50.179688 22.125 50.398438 C 22.324219 50.621094 22.425781 50.929688 22.425781 51.324219 C 22.425781 51.71875 22.324219 52.027344 22.125 52.246094 C 21.925781 52.46875 21.652344 52.582031 21.296875 52.582031 C 20.945313 52.582031 20.667969 52.46875 20.464844 52.246094 C 20.265625 52.027344 20.164063 51.71875 20.164063 51.324219 Z M 22.828125 52.515625 L 22.828125 50.128906 L 23.183594 50.128906 L 24.296875 51.859375 C 24.324219 51.898438 24.34375 51.933594 24.363281 51.96875 C 24.382813 52 24.394531 52.03125 24.40625 52.0625 L 24.40625 50.128906 L 24.714844 50.128906 L 24.714844 52.515625 L 24.363281 52.515625 L 23.226563 50.757813 C 23.210938 50.730469 23.195313 50.703125 23.179688 50.671875 C 23.164063 50.644531 23.152344 50.613281 23.136719 50.582031 L 23.136719 52.515625 Z M 26.132813 52.515625 L 26.132813 50.128906 L 27.832031 50.128906 L 27.832031 50.425781 L 26.453125 50.425781 L 26.453125 51.136719 L 27.726563 51.136719 L 27.726563 51.417969 L 26.453125 51.417969 L 26.453125 52.214844 L 27.859375 52.214844 L 27.859375 52.515625 Z M 28.25 52.515625 L 28.25 50.128906 L 28.605469 50.128906 L 29.71875 51.859375 C 29.742188 51.898438 29.765625 51.933594 29.78125 51.96875 C 29.800781 52 29.816406 52.03125 29.824219 52.0625 L 29.824219 50.128906 L 30.136719 50.128906 L 30.136719 52.515625 L 29.785156 52.515625 L 28.644531 50.757813 C 28.628906 50.730469 28.613281 50.703125 28.597656 50.671875 C 28.582031 50.644531 28.570313 50.613281 28.558594 50.582031 L 28.558594 52.515625 Z M 32.425781 52.195313 C 32.332031 52.324219 32.214844 52.417969 32.082031 52.484375 C 31.949219 52.546875 31.796875 52.582031 31.625 52.582031 C 31.300781 52.582031 31.039063 52.464844 30.839844 52.234375 C 30.640625 52.003906 30.539063 51.703125 30.539063 51.328125 C 30.539063 50.9375 30.644531 50.628906 30.851563 50.40625 C 31.058594 50.179688 31.339844 50.066406 31.695313 50.066406 C 31.964844 50.066406 32.1875 50.136719 32.359375 50.273438 C 32.53125 50.410156 32.632813 50.605469 32.667969 50.847656 L 32.351563 50.847656 C 32.324219 50.6875 32.253906 50.5625 32.136719 50.476563 C 32.023438 50.390625 31.875 50.34375 31.695313 50.34375 C 31.433594 50.34375 31.230469 50.429688 31.089844 50.601563 C 30.945313 50.769531 30.875 51.007813 30.875 51.3125 C 30.875 51.617188 30.945313 51.855469 31.085938 52.027344 C 31.226563 52.199219 31.421875 52.285156 31.671875 52.285156 C 31.894531 52.285156 32.074219 52.21875 32.210938 52.082031 C 32.34375 51.941406 32.410156 51.757813 32.410156 51.527344 L 32.410156 51.496094 L 31.664063 51.496094 L 31.664063 51.226563 L 32.710938 51.226563 L 32.710938 52.515625 L 32.496094 52.515625 Z M 33.183594 52.515625 L 33.183594 50.128906 L 33.507813 50.128906 L 33.507813 52.515625 Z M 34.027344 52.515625 L 34.027344 50.128906 L 34.382813 50.128906 L 35.492188 51.859375 C 35.519531 51.898438 35.539063 51.933594 35.558594 51.96875 C 35.578125 52 35.589844 52.03125 35.601563 52.0625 L 35.601563 50.128906 L 35.910156 50.128906 L 35.910156 52.515625 L 35.558594 52.515625 L 34.421875 50.757813 C 34.40625 50.730469 34.390625 50.703125 34.375 50.671875 C 34.359375 50.644531 34.347656 50.613281 34.332031 50.582031 L 34.332031 52.515625 Z M 36.421875 52.515625 L 36.421875 50.128906 L 38.121094 50.128906 L 38.121094 50.425781 L 36.742188 50.425781 L 36.742188 51.136719 L 38.015625 51.136719 L 38.015625 51.417969 L 36.742188 51.417969 L 36.742188 52.214844 L 38.148438 52.214844 L 38.148438 52.515625 Z M 38.539063 52.515625 L 38.539063 50.128906 L 40.238281 50.128906 L 40.238281 50.425781 L 38.859375 50.425781 L 38.859375 51.136719 L 40.136719 51.136719 L 40.136719 51.417969 L 38.859375 51.417969 L 38.859375 52.214844 L 40.269531 52.214844 L 40.269531 52.515625 Z M 40.976563 50.410156 L 40.976563 51.21875 L 41.53125 51.21875 C 41.730469 51.21875 41.871094 51.183594 41.953125 51.121094 C 42.035156 51.054688 42.078125 50.949219 42.078125 50.796875 C 42.078125 50.65625 42.039063 50.554688 41.960938 50.496094 C 41.882813 50.4375 41.738281 50.410156 41.53125 50.410156 Z M 40.660156 50.128906 L 41.585938 50.128906 C 41.734375 50.128906 41.84375 50.136719 41.914063 50.148438 C 41.984375 50.160156 42.050781 50.183594 42.105469 50.210938 C 42.207031 50.269531 42.28125 50.34375 42.335938 50.441406 C 42.386719 50.542969 42.414063 50.65625 42.414063 50.789063 C 42.414063 50.917969 42.386719 51.027344 42.332031 51.121094 C 42.277344 51.210938 42.195313 51.28125 42.085938 51.332031 C 42.175781 51.359375 42.242188 51.402344 42.28125 51.464844 C 42.320313 51.527344 42.34375 51.632813 42.355469 51.777344 L 42.382813 52.171875 C 42.390625 52.253906 42.398438 52.316406 42.417969 52.359375 C 42.433594 52.398438 42.457031 52.429688 42.492188 52.449219 L 42.492188 52.515625 L 42.117188 52.515625 C 42.089844 52.464844 42.066406 52.359375 42.054688 52.195313 C 42.054688 52.191406 42.054688 52.1875 42.054688 52.183594 L 42.035156 51.875 C 42.023438 51.714844 41.992188 51.613281 41.933594 51.5625 C 41.875 51.515625 41.734375 51.492188 41.503906 51.492188 L 40.980469 51.492188 L 40.980469 52.515625 L 40.660156 52.515625 Z M 42.867188 52.515625 L 42.867188 50.128906 L 43.191406 50.128906 L 43.191406 52.515625 Z M 43.710938 52.515625 L 43.710938 50.128906 L 44.0625 50.128906 L 45.175781 51.859375 C 45.203125 51.898438 45.222656 51.933594 45.242188 51.96875 C 45.261719 52 45.273438 52.03125 45.285156 52.0625 L 45.285156 50.128906 L 45.59375 50.128906 L 45.59375 52.515625 L 45.242188 52.515625 L 44.105469 50.757813 C 44.089844 50.730469 44.074219 50.703125 44.058594 50.671875 C 44.042969 50.644531 44.03125 50.613281 44.015625 50.582031 L 44.015625 52.515625 Z M 47.886719 52.195313 C 47.789063 52.324219 47.675781 52.417969 47.539063 52.484375 C 47.40625 52.546875 47.253906 52.582031 47.085938 52.582031 C 46.761719 52.582031 46.5 52.464844 46.300781 52.234375 C 46.101563 52.003906 46 51.703125 46 51.328125 C 46 50.9375 46.105469 50.628906 46.3125 50.40625 C 46.519531 50.179688 46.800781 50.066406 47.15625 50.066406 C 47.425781 50.066406 47.648438 50.136719 47.820313 50.273438 C 47.992188 50.410156 48.09375 50.605469 48.128906 50.847656 L 47.8125 50.847656 C 47.785156 50.6875 47.710938 50.5625 47.597656 50.476563 C 47.484375 50.390625 47.335938 50.34375 47.15625 50.34375 C 46.894531 50.34375 46.691406 50.429688 46.550781 50.601563 C 46.40625 50.769531 46.335938 51.007813 46.335938 51.3125 C 46.335938 51.617188 46.40625 51.855469 46.546875 52.027344 C 46.6875 52.199219 46.882813 52.285156 47.132813 52.285156 C 47.355469 52.285156 47.535156 52.21875 47.667969 52.082031 C 47.804688 51.941406 47.871094 51.757813 47.871094 51.527344 L 47.871094 51.496094 L 47.125 51.496094 L 47.125 51.226563 L 48.167969 51.226563 L 48.167969 52.515625 L 47.957031 52.515625 Z M 50.300781 51.035156 C 50.410156 50.964844 50.496094 50.894531 50.550781 50.820313 C 50.601563 50.746094 50.628906 50.667969 50.628906 50.582031 C 50.628906 50.5 50.601563 50.429688 50.550781 50.378906 C 50.5 50.328125 50.429688 50.300781 50.34375 50.300781 C 50.25 50.300781 50.175781 50.328125 50.125 50.378906 C 50.070313 50.429688 50.042969 50.5 50.042969 50.585938 C 50.042969 50.652344 50.0625 50.71875 50.105469 50.792969 C 50.144531 50.863281 50.210938 50.945313 50.300781 51.035156 Z M 50.183594 51.335938 C 50.039063 51.421875 49.933594 51.503906 49.871094 51.585938 C 49.804688 51.667969 49.773438 51.757813 49.773438 51.859375 C 49.773438 51.984375 49.816406 52.089844 49.898438 52.171875 C 49.980469 52.25 50.089844 52.292969 50.21875 52.292969 C 50.316406 52.292969 50.410156 52.269531 50.496094 52.222656 C 50.585938 52.175781 50.667969 52.109375 50.75 52.015625 Z M 50.027344 51.140625 C 49.933594 51.042969 49.867188 50.949219 49.824219 50.863281 C 49.78125 50.773438 49.761719 50.6875 49.761719 50.597656 C 49.761719 50.441406 49.816406 50.3125 49.921875 50.214844 C 50.027344 50.113281 50.164063 50.0625 50.332031 50.0625 C 50.507813 50.0625 50.644531 50.109375 50.746094 50.199219 C 50.847656 50.292969 50.902344 50.414063 50.902344 50.570313 C 50.902344 50.699219 50.863281 50.8125 50.792969 50.914063 C 50.722656 51.015625 50.609375 51.113281 50.453125 51.199219 L 50.902344 51.746094 C 50.929688 51.695313 50.953125 51.636719 50.96875 51.574219 C 50.980469 51.507813 50.992188 51.433594 51 51.351563 L 51.277344 51.351563 C 51.277344 51.464844 51.261719 51.578125 51.230469 51.679688 C 51.203125 51.785156 51.15625 51.882813 51.097656 51.976563 L 51.542969 52.515625 L 51.144531 52.515625 L 50.910156 52.226563 C 50.816406 52.339844 50.707031 52.425781 50.582031 52.484375 C 50.460938 52.542969 50.324219 52.570313 50.179688 52.570313 C 49.96875 52.570313 49.796875 52.507813 49.664063 52.375 C 49.53125 52.246094 49.46875 52.082031 49.46875 51.882813 C 49.46875 51.730469 49.511719 51.597656 49.597656 51.480469 C 49.683594 51.363281 49.828125 51.253906 50.027344 51.140625 Z M 53.601563 50.40625 L 53.042969 50.40625 L 53.042969 52.222656 L 53.601563 52.222656 C 53.839844 52.222656 54.019531 52.144531 54.140625 51.988281 C 54.265625 51.835938 54.324219 51.605469 54.324219 51.304688 C 54.324219 51.011719 54.261719 50.789063 54.136719 50.636719 C 54.015625 50.480469 53.835938 50.40625 53.601563 50.40625 Z M 52.71875 52.515625 L 52.71875 50.128906 L 53.628906 50.128906 C 53.960938 50.128906 54.214844 50.230469 54.390625 50.425781 C 54.570313 50.625 54.65625 50.914063 54.65625 51.285156 C 54.65625 51.675781 54.566406 51.976563 54.382813 52.191406 C 54.199219 52.40625 53.945313 52.515625 53.613281 52.515625 Z M 55.066406 52.515625 L 55.066406 50.128906 L 56.765625 50.128906 L 56.765625 50.425781 L 55.386719 50.425781 L 55.386719 51.136719 L 56.660156 51.136719 L 56.660156 51.417969 L 55.386719 51.417969 L 55.386719 52.214844 L 56.792969 52.214844 L 56.792969 52.515625 Z M 57.074219 51.730469 L 57.386719 51.730469 C 57.390625 51.902344 57.445313 52.039063 57.558594 52.140625 C 57.667969 52.242188 57.820313 52.296875 58.003906 52.296875 C 58.191406 52.296875 58.335938 52.257813 58.441406 52.179688 C 58.546875 52.101563 58.601563 51.996094 58.601563 51.859375 C 58.601563 51.679688 58.402344 51.539063 58.003906 51.445313 C 57.980469 51.441406 57.960938 51.4375 57.949219 51.433594 C 57.625 51.355469 57.410156 51.269531 57.304688 51.175781 C 57.203125 51.082031 57.148438 50.945313 57.148438 50.773438 C 57.148438 50.5625 57.226563 50.390625 57.382813 50.261719 C 57.539063 50.132813 57.746094 50.066406 58.003906 50.066406 C 58.265625 50.066406 58.472656 50.136719 58.625 50.269531 C 58.777344 50.40625 58.851563 50.59375 58.855469 50.828125 L 58.542969 50.828125 C 58.535156 50.671875 58.480469 50.546875 58.382813 50.460938 C 58.285156 50.375 58.152344 50.332031 57.980469 50.332031 C 57.824219 50.332031 57.695313 50.367188 57.601563 50.4375 C 57.507813 50.507813 57.460938 50.601563 57.460938 50.714844 C 57.460938 50.902344 57.65625 51.039063 58.046875 51.128906 C 58.105469 51.144531 58.152344 51.15625 58.183594 51.164063 C 58.1875 51.164063 58.199219 51.164063 58.21875 51.167969 C 58.472656 51.230469 58.644531 51.296875 58.726563 51.367188 C 58.792969 51.421875 58.839844 51.488281 58.875 51.566406 C 58.90625 51.644531 58.921875 51.730469 58.921875 51.824219 C 58.921875 52.054688 58.84375 52.238281 58.675781 52.375 C 58.511719 52.507813 58.289063 52.578125 58.007813 52.578125 C 57.71875 52.578125 57.496094 52.503906 57.332031 52.355469 C 57.171875 52.210938 57.085938 52 57.074219 51.730469 Z M 59.332031 52.515625 L 59.332031 50.128906 L 59.65625 50.128906 L 59.65625 52.515625 Z M 61.960938 52.195313 C 61.863281 52.324219 61.75 52.417969 61.613281 52.484375 C 61.480469 52.546875 61.328125 52.582031 61.160156 52.582031 C 60.835938 52.582031 60.574219 52.464844 60.375 52.234375 C 60.171875 52.003906 60.074219 51.703125 60.074219 51.328125 C 60.074219 50.9375 60.175781 50.628906 60.386719 50.40625 C 60.59375 50.179688 60.871094 50.066406 61.226563 50.066406 C 61.5 50.066406 61.722656 50.136719 61.894531 50.273438 C 62.066406 50.410156 62.167969 50.605469 62.203125 50.847656 L 61.886719 50.847656 C 61.859375 50.6875 61.785156 50.5625 61.671875 50.476563 C 61.554688 50.390625 61.40625 50.34375 61.226563 50.34375 C 60.96875 50.34375 60.765625 50.429688 60.621094 50.601563 C 60.480469 50.769531 60.410156 51.007813 60.410156 51.3125 C 60.410156 51.617188 60.480469 51.855469 60.621094 52.027344 C 60.761719 52.199219 60.957031 52.285156 61.207031 52.285156 C 61.429688 52.285156 61.609375 52.21875 61.742188 52.082031 C 61.878906 51.941406 61.945313 51.757813 61.945313 51.527344 L 61.945313 51.496094 L 61.199219 51.496094 L 61.199219 51.226563 L 62.242188 51.226563 L 62.242188 52.515625 L 62.03125 52.515625 Z M 62.707031 52.515625 L 62.707031 50.128906 L 63.0625 50.128906 L 64.175781 51.859375 C 64.203125 51.898438 64.222656 51.933594 64.242188 51.96875 C 64.257813 52 64.273438 52.03125 64.285156 52.0625 L 64.285156 50.128906 L 64.59375 50.128906 L 64.59375 52.515625 L 64.242188 52.515625 L 63.105469 50.757813 C 63.089844 50.730469 63.070313 50.703125 63.058594 50.671875 C 63.042969 50.644531 63.027344 50.613281 63.015625 50.582031 L 63.015625 52.515625 L 62.707031 52.515625 "/>
</g>
</svg>
